<svg width="25" height="25" viewBox="0 0 25 25" fill="none" xmlns="http://www.w3.org/2000/svg">
<path d="M17.1875 10.4169H7.8125" stroke="#5051F9" stroke-miterlimit="10"/>
<path d="M7.8125 18.2294H17.1875" stroke="#5051F9" stroke-miterlimit="10"/>
<path d="M17.1875 18.2294C17.4637 18.2294 17.7287 18.3391 17.924 18.5345C18.1194 18.7298 18.2291 18.9948 18.2291 19.271V22.9169C18.2291 23.3313 18.0645 23.7287 17.7715 24.0217C17.4785 24.3147 17.081 24.4794 16.6666 24.4794H8.33331C7.91891 24.4794 7.52148 24.3147 7.22846 24.0217C6.93543 23.7287 6.77081 23.3313 6.77081 22.9169V19.271C6.77081 18.9948 6.88056 18.7298 7.07591 18.5345C7.27126 18.3391 7.53621 18.2294 7.81248 18.2294V10.4169C7.53621 10.4169 7.27126 10.3071 7.07591 10.1118C6.88056 9.91641 6.77081 9.65146 6.77081 9.37519V7.29185C6.77081 6.46305 7.10005 5.6682 7.6861 5.08215C8.27216 4.4961 9.06701 4.16685 9.89581 4.16685H15.1041C15.9329 4.16685 16.7278 4.4961 17.3139 5.08215C17.8999 5.6682 18.2291 6.46305 18.2291 7.29185V9.37519C18.2291 9.65146 18.1194 9.91641 17.924 10.1118C17.7287 10.3071 17.4637 10.4169 17.1875 10.4169V18.2294Z" stroke="#5051F9" stroke-miterlimit="10"/>
<path d="M15.1041 4.16689V1.56272C15.1041 1.28646 14.9944 1.0215 14.799 0.826154C14.6037 0.630804 14.3387 0.521057 14.0624 0.521057H10.9374C10.6612 0.521057 10.3962 0.630804 10.2009 0.826154C10.0055 1.0215 9.89577 1.28646 9.89577 1.56272V4.16689" stroke="#5051F9" stroke-miterlimit="10"/>
</svg>
